<svg xmlns="http://www.w3.org/2000/svg" width="862.567" height="170.079" viewBox="0 0 862.567 170.079">
  <g>
    <path d="M297.765,70.739a41.087,41.087,0,0,1-12.5,30.145,41.084,41.084,0,0,1-30.145,12.5H226.772V28.346h28.346a41.2,41.2,0,0,1,30.145,12.439A40.738,40.738,0,0,1,297.765,70.739Zm-16.373,0a25.39,25.39,0,0,0-7.679-18.53,25.228,25.228,0,0,0-18.6-7.743H242.89v52.8h12.228a25.224,25.224,0,0,0,18.6-7.742A25.684,25.684,0,0,0,281.392,70.739Z" fill="#fff"/>
    <path d="M359.417,113.386H309.811V28.346h49.606v16.12H325.931V59.951h33.486v16.5H325.931V97.266h33.486Z" fill="#fff"/>
    <path d="M444.457,87.493q0,12.185-7.806,19.038t-19.991,6.855H378.731V28.346H416.66a23.376,23.376,0,0,1,16.881,6.475,21.605,21.605,0,0,1,6.727,16.245q0,12.565-9.012,17.388Q444.456,74.423,444.457,87.493ZM424.276,52.209a8.765,8.765,0,0,0-2.6-5.838,6.768,6.768,0,0,0-5.014-1.905H394.85V60.332h21.81a6.867,6.867,0,0,0,5.141-2.095A8.312,8.312,0,0,0,424.276,52.209ZM427.7,87.367a9.749,9.749,0,0,0-3.363-8,10.9,10.9,0,0,0-7.679-2.919H394.85V97.266h21.81A11.1,11.1,0,0,0,424.4,94.6,9.034,9.034,0,0,0,427.7,87.367Z" fill="#fff"/>
    <path d="M624.632,75.027a36.853,36.853,0,0,1-11.37,27.135,37.971,37.971,0,0,1-27.814,11.285q-18.5,0-30.576-13.185-10.791-11.8-10.791-30.688,0-19.651,12.14-31.826t31.668-12.175q13.1,0,22.868,6.468,5.909,3.933,12.333,12.3L609.6,53.47q-8.48-11.538-22.1-11.539-12.462,0-19.784,7.546T560.4,69.954q0,12.05,6.873,19.592t18.178,7.546q11.3,0,17.729-7.864a23.578,23.578,0,0,0,4.24-7.353H588.146V65.391h36.486Z" fill="#fff"/>
    <path d="M712.506,75.027a36.853,36.853,0,0,1-11.37,27.135,37.971,37.971,0,0,1-27.814,11.285q-18.5,0-30.576-13.185-10.791-11.8-10.791-30.688,0-19.651,12.14-31.826t31.668-12.175q13.1,0,22.868,6.468,5.909,3.933,12.333,12.3l-13.489,9.13q-8.48-11.538-22.1-11.539-12.462,0-19.783,7.546t-7.323,20.477q0,12.05,6.873,19.592t18.178,7.546q11.3,0,17.729-7.864a23.578,23.578,0,0,0,4.24-7.353H676.02V65.391h36.486Z" fill="#fff"/>
    <path d="M777.528,113.386H727.921V28.346h49.607v16.12H744.041V59.951h33.487v16.5H744.041V97.266h33.487Z" fill="#fff"/>
    <path d="M862.567,70.739a41.087,41.087,0,0,1-12.5,30.145,41.084,41.084,0,0,1-30.145,12.5H791.574V28.346H819.92a41.2,41.2,0,0,1,30.145,12.439A40.738,40.738,0,0,1,862.567,70.739Zm-16.373,0a25.39,25.39,0,0,0-7.679-18.53,25.227,25.227,0,0,0-18.6-7.743H807.692v52.8H819.92a25.222,25.222,0,0,0,18.6-7.742A25.684,25.684,0,0,0,846.194,70.739Z" fill="#fff"/>
    <path d="M530.427,78.248q0,15.353-9.984,25.277t-25.487,9.922q-15.5,0-25.485-9.922t-9.984-25.277V28.319h15.764V78.248a20.376,20.376,0,0,0,2.759,10.861q5.779,9.111,16.946,9.11,11.3,0,16.948-9.11a19.673,19.673,0,0,0,2.889-10.861V28.319h15.634Z" fill="#fff"/>
  </g>
  <g>
    <rect x="113.386" y="56.693" width="56.693" height="56.693" fill="#7c7c7c"/>
    <rect x="56.693" y="113.386" width="56.693" height="56.693" fill="#7c7c7c"/>
    <rect x="56.693" width="56.693" height="56.693" fill="#fff"/>
    <rect y="56.693" width="56.693" height="56.693" fill="#fff"/>
    <path d="M53.022,117.057v49.351H3.671V117.057H53.022m3.671-3.671H0v56.693H56.693V113.386Z" fill="#fff"/>
  </g>
</svg>
