<?xml version="1.0" encoding="utf-8"?>
<!-- Generator: Adobe Illustrator 24.0.2, SVG Export Plug-In . SVG Version: 6.00 Build 0)  -->
<svg version="1.1" id="Layer_1" xmlns="http://www.w3.org/2000/svg" xmlns:xlink="http://www.w3.org/1999/xlink" x="0px" y="0px"
	 viewBox="0 0 531.43 132.01" style="enable-background:new 0 0 531.43 132.01;" xml:space="preserve">
<style type="text/css">
	.st0{fill-rule:evenodd;clip-rule:evenodd;fill:#E0244F;}
	.st1{fill:#E0244F;}
</style>
<path class="st0" d="M78.03,0c-0.96,0-1.85,0.21-2.67,0.48c1.75,1.16,2.7,2.7,3.18,4.45c0.03,0.24,0.1,0.41,0.14,0.65
	c0.03,0.21,0.07,0.41,0.07,0.62c0.14,3.01-0.79,3.39-1.44,5.17c-0.99,2.29-0.72,4.76,0.48,6.74c0.1,0.24,0.24,0.51,0.41,0.75
	c-1.3-8.66,5.92-9.96,7.26-12.66c0.1-2.36-1.85-3.94-3.39-5.03C80.6,0.27,79.27,0,78.03,0L78.03,0z M88.92,1.95
	c-0.14,0.79-0.03,0.58-0.07,0.99c-0.03,0.27-0.03,0.62-0.07,0.89c-0.07,0.27-0.14,0.55-0.24,0.82c-0.07,0.27-0.17,0.55-0.27,0.82
	c-0.14,0.27-0.24,0.51-0.38,0.79c-0.1,0.14-0.17,0.27-0.27,0.41c-0.07,0.1-0.14,0.21-0.21,0.31c-0.17,0.24-0.34,0.48-0.51,0.68
	c-0.21,0.21-0.38,0.44-0.62,0.62v0.03c-0.21,0.17-0.41,0.38-0.65,0.55c-0.72,0.55-1.54,0.96-2.29,1.47
	c-0.24,0.17-0.48,0.31-0.68,0.51c-0.24,0.17-0.44,0.34-0.65,0.55c-0.24,0.21-0.41,0.41-0.62,0.65c-0.17,0.21-0.38,0.44-0.51,0.68
	c-0.17,0.24-0.34,0.48-0.48,0.72c-0.14,0.27-0.24,0.51-0.38,0.79c-0.1,0.27-0.21,0.51-0.27,0.79c-0.1,0.31-0.17,0.58-0.24,0.86
	c-0.03,0.14-0.03,0.31-0.07,0.44c-0.03,0.14-0.03,0.27-0.07,0.41c0,0.27-0.03,0.58-0.03,0.86c0,0.21,0,0.41,0.03,0.62
	c0,0.27,0.03,0.55,0.1,0.86c0.03,0.27,0.1,0.55,0.17,0.82c0.1,0.27,0.17,0.55,0.27,0.82c0.07,0.17,0.17,0.34,0.24,0.48l-7.87-3.05
	c-1.33-0.38-2.64-0.72-3.97-1.03c-0.72-0.17-1.44-0.34-2.16-0.51c-2.05-0.41-4.14-0.72-6.23-0.92c-0.07,0-0.1-0.03-0.17-0.03
	c-2.05-0.21-4.07-0.31-6.13-0.31c-1.51,0-3.01,0.07-4.48,0.17c-2.09,0.14-4.18,0.41-6.26,0.75c-0.51,0.07-1.03,0.17-1.54,0.27
	c-1.06,0.21-2.09,0.44-3.08,0.68c-0.51,0.14-1.03,0.27-1.54,0.41c-0.51,0.21-0.99,0.44-1.47,0.65c-0.38,0.17-0.75,0.34-1.13,0.51
	c-0.07,0.03-0.14,0.03-0.17,0.07c-0.34,0.17-0.65,0.31-0.96,0.48c-0.1,0.03-0.17,0.07-0.24,0.1c-0.38,0.17-0.75,0.38-1.06,0.55
	c-0.24,0.1-0.48,0.24-0.68,0.34c-0.1,0.07-0.24,0.14-0.31,0.17c-0.31,0.17-0.62,0.34-0.89,0.51c-0.31,0.17-0.58,0.34-0.82,0.51
	c-0.24,0.17-0.48,0.31-0.68,0.48c-0.03,0.03-0.07,0.03-0.1,0.07c-0.21,0.14-0.44,0.31-0.65,0.48c0,0-0.03,0.03-0.07,0.07
	c-0.17,0.14-0.34,0.27-0.51,0.41c-0.07,0.03-0.14,0.1-0.21,0.14c-0.17,0.14-0.34,0.31-0.51,0.44c-0.03,0.07-0.1,0.1-0.14,0.14
	c-0.21,0.21-0.41,0.38-0.62,0.58c-0.03,0-0.03,0.03-0.07,0.07c-0.21,0.17-0.41,0.38-0.62,0.58c-0.03,0.03-0.03,0.07-0.07,0.07
	c-0.17,0.17-0.34,0.34-0.51,0.55c-0.07,0.07-0.17,0.14-0.24,0.21c-0.17,0.21-0.38,0.41-0.58,0.62c-0.03,0.07-0.1,0.1-0.14,0.17
	c-0.27,0.27-0.51,0.55-0.79,0.82c-0.03,0.03-0.07,0.07-0.1,0.1c-0.55,0.58-1.13,1.16-1.75,1.68c-0.62,0.55-1.27,1.06-1.92,1.51
	c-0.68,0.48-1.33,0.89-2.05,1.3c-0.68,0.38-1.4,0.72-2.16,1.03c-0.72,0.31-1.47,0.58-2.22,0.82c-1.44,0.31-2.91,0.89-4.18,0.99
	c-0.27,0-0.58,0.07-0.86,0.1c-0.31,0.07-0.58,0.14-0.86,0.21c-0.27,0.1-0.55,0.21-0.82,0.31c-0.27,0.1-0.55,0.24-0.82,0.38
	C4.52,36.01,4.24,36.14,4,36.31c-0.24,0.17-0.48,0.38-0.68,0.58c-0.24,0.17-0.48,0.41-0.68,0.62c-0.21,0.24-0.41,0.44-0.58,0.68
	c-0.17,0.27-0.38,0.51-0.51,0.79c-0.17,0.24-0.34,0.51-0.48,0.79c-0.14,0.31-0.27,0.58-0.38,0.89c-0.1,0.27-0.21,0.58-0.31,0.89
	c-0.07,0.27-0.14,0.55-0.17,0.82c0,0.03-0.03,0.07-0.03,0.1c-0.07,0.31-0.07,0.72-0.1,0.92C0.03,43.64,0,43.84,0,44.08
	c0,0.14,0,0.31,0.03,0.44c0.03,0.24,0.07,0.44,0.14,0.65c0.07,0.21,0.14,0.41,0.24,0.62v0.03c0.1,0.21,0.24,0.41,0.38,0.62
	c0.14,0.21,0.27,0.41,0.44,0.62c0.17,0.17,0.38,0.38,0.58,0.55c0.21,0.21,0.41,0.38,0.65,0.55c0.82,0.72,1.03,0.96,2.09,1.51
	c0.17,0.1,0.34,0.17,0.55,0.27c0.03,0,0.07,0.03,0.1,0.03c0,0.07,0,0.1,0.03,0.17c0.03,0.27,0.1,0.55,0.17,0.82
	c0.07,0.31,0.17,0.58,0.27,0.82c0.1,0.21,0.17,0.41,0.27,0.62c0.03,0.07,0.07,0.14,0.1,0.17c0.14,0.27,0.27,0.51,0.41,0.75
	c0.17,0.24,0.34,0.48,0.51,0.72c0.17,0.21,0.38,0.44,0.58,0.65c0.21,0.21,0.41,0.38,0.65,0.58c0,0,0.03,0.03,0.07,0.03
	c0.21,0.17,0.41,0.34,0.62,0.48c0.24,0.17,0.48,0.31,0.75,0.44c0.24,0.14,0.51,0.27,0.79,0.38c0.21,0.1,0.44,0.17,0.68,0.24
	c0.03,0.03,0.07,0.03,0.14,0.07c0.14,0.03,0.31,0.07,0.44,0.1c-0.1,1.85-0.14,3.59,0.14,4.21c0.31,0.68,1.81-1.4,3.32-3.8
	c-0.21,2.36-0.34,5.13,0,5.96c0.38,0.86,2.43-1.81,4.21-4.76c24.27-5.61,46.41,11.16,48.74,34.84c-0.44-3.7-5-5.75-7.08-5.24
	c-1.03,2.53-2.77,5.78-5.58,7.8c0.24-2.26,0.14-4.59-0.34-6.85c-0.75,3.15-2.22,6.09-4.24,8.62c-3.25,0.24-6.5-1.33-8.21-3.7
	c-0.14-0.1-0.17-0.31-0.27-0.44c-0.1-0.24-0.21-0.48-0.27-0.72c-0.1-0.24-0.17-0.48-0.21-0.72c-0.03-0.24-0.03-0.48-0.03-0.75
	c0-0.17,0-0.34,0-0.51c0.03-0.24,0.1-0.48,0.17-0.72c0.07-0.24,0.14-0.48,0.24-0.72c0.14-0.24,0.24-0.48,0.41-0.72
	c0.58-1.64,0.58-2.98-0.48-3.76c-0.21-0.14-0.41-0.24-0.65-0.34c-0.14-0.03-0.31-0.1-0.44-0.14c-0.1-0.03-0.17-0.07-0.27-0.1
	c-0.24-0.07-0.48-0.14-0.72-0.17c-0.24-0.07-0.48-0.1-0.72-0.1c-0.24-0.03-0.51-0.07-0.75-0.07c-0.17,0-0.34,0.03-0.51,0.03
	c-0.27,0-0.51,0.03-0.75,0.1c-0.24,0.03-0.48,0.07-0.72,0.14c-0.24,0.07-0.48,0.14-0.72,0.24c-0.24,0.1-0.44,0.21-0.68,0.31
	c-0.21,0.1-0.41,0.24-0.65,0.34c-7.97,5.2-3.22,17.39,2.22,20.91c-2.05,0.38-4.14,0.82-4.72,1.27c-0.03,0.03-0.07,0.07-0.07,0.07
	c1.47,0.89,3.01,1.64,4.62,2.29c2.19,0.72,4.52,1.37,5.54,1.64v0.03c2.84,0.58,5.72,0.79,8.62,0.62
	c15.16-1.06,27.59-12.6,29.84-27.79c0.07,0.31,0.14,0.58,0.21,0.89c0.1,0.62,0.24,1.27,0.31,1.92v0.03c0.07,0.31,0.1,0.62,0.14,0.89
	v0.14c0.03,0.31,0.07,0.62,0.07,0.89c0.03,0.38,0.07,0.75,0.07,1.13v0.55c0,0.17,0.03,0.38,0.03,0.55c0,0.21-0.03,0.41-0.03,0.62
	v0.48c0,0.24-0.03,0.44-0.03,0.68c0,0.14,0,0.27-0.03,0.44c0,0.24-0.03,0.48-0.03,0.75c-0.03,0.1-0.03,0.21-0.03,0.31
	c-0.03,0.27-0.07,0.51-0.1,0.79c0,0.1,0,0.21-0.03,0.31c-0.03,0.34-0.1,0.65-0.14,0.99v0.03v0.03c-0.07,0.31-0.14,0.65-0.21,0.96
	v0.1c-0.07,0.31-0.14,0.62-0.21,0.92c0,0.03-0.03,0.1-0.03,0.14c-0.07,0.31-0.14,0.62-0.24,0.92v0.1c-0.1,0.34-0.21,0.65-0.27,0.96
	c-0.03,0.03-0.03,0.07-0.03,0.07c-0.1,0.34-0.21,0.68-0.31,1.03c-0.14,0.34-0.24,0.65-0.38,0.99c-0.14,0.34-0.24,0.68-0.38,0.99
	c-0.14,0.34-0.27,0.65-0.41,0.99h-0.03c-0.14,0.31-0.27,0.65-0.44,0.96c-0.03,0.1-0.07,0.17-0.1,0.24c-0.03,0.03-0.03,0.07-0.07,0.1
	c-2.22,4.48-5.51,8.42-9.62,11.5c-0.27,0.17-0.55,0.38-0.82,0.58c-0.07,0.07-0.17,0.1-0.24,0.17c-0.24,0.17-0.48,0.34-0.75,0.51
	l0.1,0.21h0.03c0.48-0.07,0.96-0.14,1.44-0.21h0.03c0.89-0.14,1.78-0.31,2.67-0.48c0.24-0.03,0.51-0.1,0.75-0.17
	c0.17-0.03,0.31-0.07,0.48-0.1c0.24-0.03,0.48-0.1,0.72-0.14c0.21-0.07,0.41-0.1,0.62-0.17c3.42-0.82,6.74-1.95,9.93-3.29
	c-5.44,7.43-12.73,13.42-21.25,17.35c3.94-0.27,7.87-0.92,11.67-2.02c13.79-4.07,25.4-13.35,32.34-25.84
	c-1.4,7.91-4.55,15.44-9.21,22.01c3.32-2.19,6.37-4.72,9.14-7.6c7.67-8.01,12.7-18.17,14.41-29.09c1.16,5.41,1.51,10.99,0.99,16.5
	c24.71-34.47,2.05-70.2-7.43-79.61c-0.03-0.07-0.07-0.1-0.07-0.17c-0.03,0.03-0.03,0.03-0.03,0.07c0-0.03,0-0.03-0.03-0.07
	c0,0.41-0.03,0.82-0.07,1.23c-0.1,0.79-0.21,1.54-0.34,2.29c-0.17,0.75-0.38,1.51-0.58,2.26c-0.24,0.72-0.51,1.47-0.82,2.19
	c-0.31,0.68-0.65,1.4-1.03,2.09c-0.38,0.65-0.79,1.33-1.23,1.95c-0.44,0.65-0.92,1.27-1.4,1.85c-0.51,0.62-1.06,1.16-1.61,1.71
	c-0.34,0.31-0.65,0.58-0.99,0.86c-0.27,0.24-0.51,0.44-0.79,0.68c-0.62,0.48-1.23,0.92-1.92,1.33c-0.65,0.41-1.33,0.82-2.02,1.16
	c-0.72,0.34-1.44,0.65-2.16,0.96c-0.72,0.27-1.47,0.51-2.22,0.72c-0.75,0.21-1.54,0.38-2.29,0.51c-0.79,0.14-1.57,0.21-2.33,0.27
	c-0.55,0.03-1.1,0.07-1.64,0.07c-0.79,0-1.57-0.07-2.33-0.14c-0.79-0.07-1.57-0.17-2.33-0.34c-0.79-0.14-1.54-0.34-2.29-0.58h-0.03
	c0.75-0.07,1.51-0.14,2.26-0.27c0.79-0.14,1.54-0.31,2.29-0.51c0.75-0.21,1.51-0.44,2.22-0.72c0.75-0.27,1.47-0.62,2.16-0.96
	c0.72-0.34,1.37-0.72,2.05-1.13c0.65-0.44,1.3-0.89,1.92-1.37c0.62-0.48,1.2-0.99,1.75-1.54c0.58-0.51,1.1-1.1,1.61-1.68
	c0.51-0.62,0.99-1.23,1.44-1.85c0.07-0.1,0.14-0.24,0.21-0.34c0.34-0.55,0.68-1.1,0.99-1.64c0.38-0.68,0.72-1.37,1.03-2.09
	c0.31-0.72,0.58-1.44,0.82-2.19c0.24-0.72,0.41-1.47,0.58-2.22c0.14-0.79,0.27-1.54,0.34-2.29c0.07-0.79,0.14-1.57,0.14-2.33
	c0-0.55-0.03-1.1-0.07-1.64c-0.07-0.79-0.17-1.54-0.27-2.29c-0.14-0.79-0.31-1.54-0.51-2.29c-0.24-0.72-0.48-1.47-0.75-2.19
	c-0.27-0.72-0.62-1.44-0.96-2.12c-0.38-0.68-0.75-1.37-1.16-2.02c-0.44-0.65-0.89-1.27-1.37-1.88c-0.51-0.58-1.03-1.16-1.57-1.75
	c-0.27-0.27-0.58-0.58-0.89-0.86c-1.54-1.2-3.15-2.33-4.76-3.35c-0.24-0.14-0.44-0.24-0.68-0.34C91.04,2.67,89.98,2.29,88.92,1.95
	L88.92,1.95z"/>
<g>
	<path class="st1" d="M172.39,96.84c-3.15,0-5.52-0.79-7.12-2.36c-1.6-1.57-2.39-3.9-2.39-6.96V73.03c0-1.09-0.25-1.89-0.76-2.39
		c-0.5-0.5-1.2-0.76-2.08-0.76h-2.21v-5.04h2.21c0.88,0,1.58-0.25,2.08-0.76c0.5-0.5,0.76-1.3,0.76-2.39V47.2
		c0-3.11,0.8-5.44,2.39-6.99c1.6-1.55,3.97-2.33,7.12-2.33h2.77v4.98h-1.58c-1.55,0-2.72,0.42-3.5,1.26
		c-0.78,0.84-1.17,2.06-1.17,3.65v13.8c0,1.47-0.19,2.61-0.57,3.43c-0.38,0.82-0.94,1.43-1.67,1.83c-0.74,0.4-1.69,0.7-2.87,0.91
		v-0.76c1.18,0.17,2.13,0.46,2.87,0.88c0.73,0.42,1.29,1.04,1.67,1.86c0.38,0.82,0.57,1.96,0.57,3.43v13.8
		c0,1.6,0.39,2.81,1.17,3.65c0.78,0.84,1.94,1.26,3.5,1.26h1.58v4.98H172.39z"/>
	<path class="st1" d="M199.92,50.92c2.73,0,5.13,0.53,7.21,1.58c2.08,1.05,3.71,2.65,4.88,4.79c1.18,2.14,1.76,4.85,1.76,8.13v19.21
		h-6.05V66.1c0-3.23-0.79-5.67-2.36-7.31c-1.58-1.64-3.79-2.46-6.65-2.46c-2.14,0-4.01,0.42-5.61,1.26
		c-1.6,0.84-2.83,2.08-3.69,3.72c-0.86,1.64-1.29,3.68-1.29,6.11v17.2h-6.05V51.23h5.8v9.01l-0.94-2.39
		c1.09-2.18,2.77-3.88,5.04-5.1C194.25,51.53,196.9,50.92,199.92,50.92z"/>
	<path class="st1" d="M239.87,85c-3.57,0-6.71-0.73-9.42-2.21c-2.71-1.47-4.81-3.49-6.3-6.05c-1.49-2.56-2.24-5.5-2.24-8.82
		c0-3.32,0.72-6.26,2.17-8.82c1.45-2.56,3.44-4.57,5.99-6.02c2.54-1.45,5.41-2.17,8.6-2.17c3.23,0,6.09,0.71,8.57,2.14
		c2.48,1.43,4.42,3.43,5.83,6.02c1.41,2.58,2.11,5.6,2.11,9.04c0,0.25-0.01,0.55-0.03,0.88c-0.02,0.34-0.05,0.65-0.1,0.94h-28.41
		v-4.35h25.26l-2.46,1.51c0.04-2.14-0.4-4.05-1.32-5.73c-0.92-1.68-2.2-2.99-3.81-3.94c-1.62-0.94-3.5-1.42-5.64-1.42
		c-2.1,0-3.97,0.47-5.61,1.42c-1.64,0.95-2.92,2.27-3.84,3.97c-0.92,1.7-1.39,3.64-1.39,5.83v1.01c0,2.23,0.51,4.21,1.54,5.95
		c1.03,1.74,2.47,3.1,4.32,4.06c1.85,0.97,3.97,1.45,6.36,1.45c1.97,0,3.77-0.34,5.39-1.01c1.62-0.67,3.03-1.68,4.25-3.02l3.34,3.91
		c-1.51,1.76-3.39,3.11-5.64,4.03C245.15,84.54,242.64,85,239.87,85z"/>
	<path class="st1" d="M273.13,85c-2.77,0-5.41-0.38-7.91-1.13c-2.5-0.76-4.46-1.68-5.89-2.77l2.52-4.79
		c1.43,0.97,3.19,1.79,5.29,2.46c2.1,0.67,4.24,1.01,6.43,1.01c2.81,0,4.84-0.4,6.08-1.2c1.24-0.8,1.86-1.91,1.86-3.34
		c0-1.05-0.38-1.87-1.13-2.46c-0.76-0.59-1.75-1.03-2.99-1.32c-1.24-0.29-2.61-0.56-4.13-0.79c-1.51-0.23-3.02-0.52-4.54-0.88
		c-1.51-0.36-2.9-0.86-4.16-1.51c-1.26-0.65-2.27-1.55-3.02-2.71c-0.76-1.15-1.13-2.7-1.13-4.63c0-2.02,0.57-3.78,1.7-5.29
		s2.74-2.68,4.82-3.5s4.55-1.23,7.4-1.23c2.18,0,4.4,0.26,6.65,0.79c2.25,0.53,4.08,1.27,5.51,2.24l-2.58,4.79
		c-1.51-1.01-3.09-1.7-4.72-2.08c-1.64-0.38-3.28-0.57-4.91-0.57c-2.65,0-4.62,0.43-5.92,1.29c-1.3,0.86-1.95,1.96-1.95,3.31
		c0,1.13,0.39,2.01,1.17,2.61c0.78,0.61,1.79,1.08,3.02,1.42c1.24,0.34,2.61,0.62,4.13,0.85c1.51,0.23,3.02,0.53,4.54,0.88
		c1.51,0.36,2.89,0.85,4.13,1.48c1.24,0.63,2.25,1.51,3.02,2.65c0.78,1.13,1.17,2.65,1.17,4.54c0,2.02-0.59,3.76-1.76,5.23
		c-1.18,1.47-2.83,2.61-4.98,3.43C278.67,84.59,276.11,85,273.13,85z"/>
	<path class="st1" d="M290.33,56.21v-4.98h21.29v4.98H290.33z M306.58,85c-3.36,0-5.96-0.9-7.81-2.71
		c-1.85-1.81-2.77-4.39-2.77-7.75V43.92h6.05v30.37c0,1.81,0.45,3.19,1.35,4.16c0.9,0.97,2.19,1.45,3.87,1.45
		c1.89,0,3.47-0.52,4.73-1.57l1.89,4.35c-0.92,0.8-2.03,1.39-3.31,1.76S307.97,85,306.58,85z"/>
	<path class="st1" d="M316.91,97.22c-1.39,0-2.72-0.17-4-0.5c-1.28-0.34-2.36-0.84-3.24-1.51l1.95-4.66
		c1.26,1.05,2.9,1.58,4.91,1.58c1.6,0,2.82-0.49,3.69-1.48c0.86-0.99,1.29-2.45,1.29-4.38V51.23h6.05v34.9c0,3.4-0.91,6.1-2.74,8.1
		C322.99,96.22,320.36,97.22,316.91,97.22z M324.54,44.8c-1.18,0-2.15-0.38-2.93-1.13c-0.78-0.76-1.17-1.68-1.17-2.77
		c0-1.13,0.39-2.08,1.17-2.83c0.78-0.76,1.75-1.13,2.93-1.13c1.17,0,2.15,0.37,2.93,1.1c0.78,0.74,1.17,1.65,1.17,2.74
		c0,1.13-0.38,2.09-1.13,2.87C326.74,44.42,325.75,44.8,324.54,44.8z"/>
	<path class="st1" d="M348.66,85c-2.77,0-5.41-0.38-7.91-1.13c-2.5-0.76-4.46-1.68-5.89-2.77l2.52-4.79
		c1.43,0.97,3.19,1.79,5.29,2.46c2.1,0.67,4.24,1.01,6.43,1.01c2.81,0,4.84-0.4,6.08-1.2c1.24-0.8,1.86-1.91,1.86-3.34
		c0-1.05-0.38-1.87-1.13-2.46c-0.76-0.59-1.75-1.03-2.99-1.32c-1.24-0.29-2.61-0.56-4.13-0.79c-1.51-0.23-3.02-0.52-4.54-0.88
		c-1.51-0.36-2.9-0.86-4.16-1.51c-1.26-0.65-2.27-1.55-3.02-2.71c-0.76-1.15-1.13-2.7-1.13-4.63c0-2.02,0.57-3.78,1.7-5.29
		s2.74-2.68,4.82-3.5s4.55-1.23,7.4-1.23c2.18,0,4.4,0.26,6.65,0.79c2.25,0.53,4.08,1.27,5.51,2.24l-2.58,4.79
		c-1.51-1.01-3.09-1.7-4.72-2.08c-1.64-0.38-3.28-0.57-4.91-0.57c-2.65,0-4.62,0.43-5.92,1.29c-1.3,0.86-1.95,1.96-1.95,3.31
		c0,1.13,0.39,2.01,1.17,2.61c0.78,0.61,1.79,1.08,3.02,1.42c1.24,0.34,2.61,0.62,4.13,0.85c1.51,0.23,3.02,0.53,4.54,0.88
		c1.51,0.36,2.89,0.85,4.13,1.48c1.24,0.63,2.25,1.51,3.02,2.65c0.78,1.13,1.17,2.65,1.17,4.54c0,2.02-0.59,3.76-1.76,5.23
		c-1.18,1.47-2.83,2.61-4.98,3.43C354.21,84.59,351.65,85,348.66,85z"/>
	<path class="st1" d="M368.51,69.94v-5.23h16.95v5.23H368.51z"/>
	<path class="st1" d="M397.8,44.8c-1.18,0-2.15-0.38-2.93-1.13c-0.78-0.76-1.17-1.68-1.17-2.77c0-1.13,0.39-2.08,1.17-2.83
		c0.78-0.76,1.75-1.13,2.93-1.13s2.15,0.37,2.93,1.1c0.78,0.74,1.17,1.65,1.17,2.74c0,1.13-0.38,2.09-1.13,2.87
		C400.01,44.42,399.02,44.8,397.8,44.8z M394.78,84.62V51.23h6.05v33.39H394.78z"/>
	<path class="st1" d="M416.64,84.62V43.04l2.71,2.96h-12.66v-5.48h16.19v44.1H416.64z"/>
	<path class="st1" d="M449.72,85.12c-3.57,0-6.66-0.52-9.26-1.57c-2.6-1.05-4.62-2.55-6.05-4.5c-1.43-1.95-2.14-4.25-2.14-6.9
		c0-2.6,0.68-4.82,2.05-6.65c1.36-1.83,3.35-3.21,5.95-4.16c2.6-0.95,5.75-1.42,9.45-1.42c3.7,0,6.86,0.47,9.48,1.42
		c2.62,0.94,4.63,2.34,6.02,4.19c1.39,1.85,2.08,4.05,2.08,6.61c0,2.65-0.71,4.95-2.14,6.9c-1.43,1.95-3.46,3.46-6.11,4.5
		C456.4,84.6,453.29,85.12,449.72,85.12z M449.72,63.33c-3.36,0-6.22-0.45-8.57-1.35c-2.35-0.9-4.16-2.21-5.42-3.91
		c-1.26-1.7-1.89-3.73-1.89-6.08c0-2.48,0.66-4.61,1.98-6.39c1.32-1.78,3.18-3.16,5.58-4.13c2.39-0.97,5.17-1.45,8.32-1.45
		c3.19,0,5.99,0.48,8.38,1.45c2.39,0.97,4.26,2.34,5.61,4.13c1.34,1.79,2.02,3.92,2.02,6.39c0,2.35-0.63,4.38-1.89,6.08
		c-1.26,1.7-3.09,3-5.48,3.91C455.95,62.88,453.08,63.33,449.72,63.33z M449.72,80.02c3.53,0,6.29-0.72,8.29-2.17
		c1.99-1.45,2.99-3.41,2.99-5.89c0-2.44-1-4.36-2.99-5.76c-2-1.41-4.76-2.11-8.29-2.11c-3.49,0-6.22,0.7-8.19,2.11
		c-1.97,1.41-2.96,3.33-2.96,5.76c0,2.48,0.99,4.44,2.96,5.89C443.5,79.3,446.23,80.02,449.72,80.02z M449.72,59.29
		c3.07,0,5.47-0.63,7.21-1.89c1.74-1.26,2.61-2.98,2.61-5.17c0-2.23-0.9-3.97-2.71-5.23c-1.81-1.26-4.18-1.89-7.12-1.89
		c-2.94,0-5.28,0.63-7.02,1.89c-1.74,1.26-2.61,3-2.61,5.23c0,2.18,0.85,3.91,2.55,5.17C444.33,58.66,446.69,59.29,449.72,59.29z"/>
	<path class="st1" d="M493.63,50.92c2.73,0,5.13,0.53,7.21,1.58c2.08,1.05,3.71,2.65,4.88,4.79c1.17,2.14,1.76,4.85,1.76,8.13v19.21
		h-6.05V66.1c0-3.23-0.79-5.67-2.36-7.31c-1.58-1.64-3.79-2.46-6.65-2.46c-2.14,0-4.01,0.42-5.61,1.26
		c-1.6,0.84-2.83,2.08-3.69,3.72c-0.86,1.64-1.29,3.68-1.29,6.11v17.2h-6.05V51.23h5.8v9.01l-0.95-2.39
		c1.09-2.18,2.77-3.88,5.04-5.1C487.96,51.53,490.6,50.92,493.63,50.92z"/>
	<path class="st1" d="M516.94,96.84h-2.77v-4.98h1.51c1.64,0,2.84-0.42,3.62-1.26c0.78-0.84,1.17-2.06,1.17-3.65v-13.8
		c0-1.47,0.18-2.61,0.54-3.43c0.36-0.82,0.91-1.44,1.67-1.86c0.76-0.42,1.7-0.71,2.83-0.88v0.76c-1.13-0.21-2.08-0.51-2.83-0.91
		c-0.76-0.4-1.31-1.01-1.67-1.83c-0.36-0.82-0.54-1.96-0.54-3.43v-13.8c0-1.6-0.39-2.81-1.17-3.65c-0.78-0.84-1.98-1.26-3.62-1.26
		h-1.51v-4.98h2.77c3.15,0,5.53,0.78,7.15,2.33c1.62,1.55,2.43,3.89,2.43,6.99v14.49c0,1.09,0.25,1.89,0.76,2.39
		c0.5,0.5,1.18,0.76,2.02,0.76h2.14v5.04h-2.14c-0.84,0-1.51,0.25-2.02,0.76c-0.5,0.5-0.76,1.3-0.76,2.39v14.49
		c0,3.07-0.81,5.39-2.43,6.96C522.47,96.06,520.09,96.84,516.94,96.84z"/>
</g>
</svg>
